<?xml version="1.0" encoding="UTF-8"?>
<svg version="1.1" viewBox="0 0 1000 1200" width="182" height="44" xmlns="http://www.w3.org/2000/svg">
<path transform="translate(686,37)" d="m0 0h8l3 2v27l-3 66-1 1-28 2-17 3-8 3-15 6-19 10-9 7v189l3 3 14 9 14 7 20 7 17 3 16 2 2 1v28l-1 39-1 21-2 4h-12l-33-5-31-8-5-1-1 42-2 14-5 20-8 16-11 16h-2l-2 4-12 13-16 17-11 13-8 14-6 18-4 22-4 40-2 25-3 16-5 12-2-1v-372l-9-10-1-2-3-1v24l-3 70-4 134h-3l-14-8-16-12-10-9-5-4-7-8-11-14-9-16-6-18-2-16v-142l4 2 7 5v2l4 2 10 9 10 8 13 11 6 2-6-9-10-13-13-19-11-19-9-19-5-19-1-146h-103l-2-1 1-18 3-14 5-15 8-13 9-10 5-4 6-4 13-10 9-6 5-2 7-3 12-5 15-5 10-3 15-3 21-2h48l16 2 22 5 16 5 19 8 12 8 5-1 15-7 24-9 17-5 25-5zm-199 190-1 6-1 36v19l7 6 3-1v-57l-4-7zm95 139 4 4v-4zm-22 79-4 5-8 14-4 6v3l4-2 14-15 5-5v-3l-5-3z" fill="#BA52DF"/>
<path transform="translate(956,825)" d="m0 0h18l3 3v2l-5 4-6 9-5 3h-95l-83 1-41 1h-31v2h108l38 1 72 1 30 1 1 3-5 8-241 3-190 2h-70v2l143 1 56 1 127 1 164 2h3l5 2-2 12-1 11-1 1-57 1-205 1h-40l-94 1h-49v2h49l191 2 192 1 1 1h7 4l2 2 2 16 2 10v4l-39 1-170 2h-27l-127 1-69 1h-90v2l139 1 248 2 138 2 4 1 3 7 10 16 4 4-1 3h-436l-171-1-14-3-13-5-11-7-12-11-8-10-8-16-3-9-2-14 1-19 5-16 6-12 10-13 9-8 14-9 14-5 8-2z" fill="#EA3B14"/>
<path transform="translate(376,775)" d="m0 0h613l2 2v34l-1 1h-619l-19 3-16 6-8 4-9 7-8 6-4 4-3 5-8 10-2 5-4 9-3 9-2 15v20l3 19 5 12 4 8 7 10 9 10 5 4v2l5 2 11 7 15 6 7 2 8 1 626 1 1 1v36h-582l-38-1-19-2-18-5-19-9-17-11-16-15-8-10-6-9-7-12-6-15-4-12-2-18v-26l2-15 7-21 5-10 7-12 8-10 7-8 9-9 3-1 4-4 14-9 16-8 10-3 6-2z" fill="#BC55DF"/>
<path transform="translate(723,40)" d="m0 0 14 1 22 5 19 6 21 8 19 9 13 8 11 7 10 8 13 11 8 7 8 8 7 8 10 13 10 15 6 10 10 23 6 18 4 18 2 14v41l-2 14-4 19-7 20-9 20-9 15-12 17-13 15-5 6-8 7-10 9-15 11-17 11-19 10-19 8-18 6-24 6-18 3-5-1-1-2v-49l1-42 2-2 21-7 17-8 16-11 10-9 10-10 10-14 9-17 4-11 4-21v-25l-3-17-6-17-8-15-12-16-4-5-2-1v-2l-4-2-10-9-14-9-21-10-18-6-1-1v-95z" fill="#6F22BA"/>
<path transform="translate(496,872)" d="m0 0h101l56 1 127 1 164 2h3l5 2-2 12-1 11-1 1-57 1-205 1h-40l-94 1h-49v2h49l191 2 192 1 1 1h7 4l2 2 2 16 2 10v4l-39 1-170 2h-27l-127 1-69 1h-84v-1l29-1-5-8-4-15-1-9v-18l3-12 4-10 1-1z" fill="#F48520"/>
<path transform="translate(956,825)" d="m0 0h18l3 3v2l-5 4-6 9-5 3h-95l-83 1-41 1h-31v2h108l38 1 72 1 30 1 1 3-5 8-241 3-190 2h-65v-1l11-3 2-4 4-4 8-6 2-6h2l2-4-5-2-9-1v-2l25-1v-1l-21-1-1-3-6 1h-15l-1-2 2-1 21-1h13l22-1z" fill="#F58722"/>
<path transform="translate(496,395)" d="m0 0 1 3h2l14 14 14 11 18 13 10 6 4 2-1 4-9 16-4 6-1 3 7-6 7-8 11-11 6 4 22 9-1 54-6 24-8 16-11 16h-2l-2 4-12 13-16 17-11 13-8 14-6 18-4 22-4 40-2 25-3 16-5 12-2-1v-64l1-207z" fill="#43109C"/>
<path transform="translate(513,951)" d="m0 0h57l248 2 138 2 4 1 3 7 10 16 4 4-1 3h-416v-1l-33-4-1-1-9-2-16-5-9-4-11-7-10-9v-1h20z" fill="#F4861F"/>
<path transform="translate(637 1e3)" d="m0 0h354v36h-330l-31-1v-1l30-1 4-2 2 1h19v-15l1-2 10 1v-3l-4-1h-6l-1-3 1-2h8l7-3-1-2h-10l-1 1h-14l-6-1-32-1z" fill="#400E9A"/>
<path transform="translate(598,873)" d="m0 0h55l127 1 164 2h3l5 2-2 12-1 11-1 1-57 1-205 1h-96l-34-1v-1l4-1-4-1h3l1-3h2l-1-17 2-1v-2l6-2z" fill="#F58621"/>
<path transform="translate(496,872)" d="m0 0h101l1 2-31 2-4 1 1 3-2 2v15l-3 3 9 1v1l22 1v1l-21 1h-66v2h40l3 1 18 1h11l2 2-12 1v4l5 1-2 4-5 2-1 12-2 1-1 4 9 1 3 2 76 1 6 1v1l-132 2h-84v-1l29-1-5-8-4-15-1-9v-18l3-12 4-10 1-1z" fill="#F27122"/>
<path transform="translate(723,40)" d="m0 0 14 1 22 5 19 6 21 8 14 7-1 2 6 3 2 8-3 12-2 2h-11l-2-5 5-5 5-3 2-1-1-5h-6v3 2h-4l-1 5-3 5-6 16-4 10-7 20-2 10h-2l-3 10-2 3-4-2-23-12-23-8-1-1v-95z" fill="#B952DE"/>
<path transform="translate(699,953)" d="m0 0h119l138 2 4 1 3 7 10 16 4 4-1 3h-416v-1h250v-3l2-1 1-5 7-11 7-8-1-1-37-1-90-1z" fill="#FABE2D"/>
<path transform="translate(474,496)" d="m0 0h1v31l-1 80h-3l-14-8-16-12-10-9-5-4-7-8-11-14-9-16-2-5v-7l2 1 2 3h2l1 2 3 1 2-7h6v-5l9-3 7-6h5l6 2 9-3 7-1 1-3 5-1 1-4 5-3z" fill="#6F22BA"/>
<path transform="translate(857,776)" d="m0 0h133l1 1v34l-1 1h-152l-40-1-17-1v-1h28l38-1 1-2h2l1-3 4-4h2l1-3 4-2 5-5 11-9-2-1-66-1v-1z" fill="#7225BB"/>
<path transform="translate(637 1e3)" d="m0 0h150l31 1v1l-9 1v1l-9 1-2 1 4 2 11 1 2 3-15 1-5 5-6 7-5 4-1 4-48 1 255 1v-35h1v36h-330l-31-1v-1l30-1 4-2 2 1h19v-15l1-2 10 1v-3l-4-1h-6l-1-3 1-2h8l7-3-1-2h-10l-1 1h-14l-6-1-32-1z" fill="#7022BB"/>
<path transform="translate(397,43)" d="m0 0h2v3h12l17 3 10 4 10 5 8 6v1l-8-1-2 7-6 2v2l-9 3-1-2-2 5-5 2h-7l-1 3-13 4-20 1-5 3-4 1 2 4 2 1v3h2l1 12-4-5-5-10-1-4-4-2-5-5-8-6-10-3h-17l-6 1 4-5 11-8 9-6 5-2 7-3 12-5 15-5 10-3z" fill="#EFA3F3"/>
<path transform="translate(515,826)" d="m0 0h30l29 1-3 2-10 3v3l-1 2-27-1v2h30l1 3-1 3v17l-1 4 3 1-1 1-31 1-9 1h-65v-1l11-3 2-4 4-4 8-6 2-6h2l2-4-5-2-9-1v-2l25-1v-1l-21-1-1-3-6 1h-15l-1-2 2-1 21-1h13z" fill="#F27021"/>
<path transform="translate(326,79)" d="m0 0h17l10 3 12 9 5 5 7 14 3 7 5 15 3 16v8h-20l-6-11-8-10-1-3h-2l-10-10-4-2v-2l-4-1-11-5-14-3h-12l1-5 7-11 10-10 9-3z" fill="#280C5A"/>
<path transform="translate(686,909)" d="m0 0h57l192 1 1 1h7 4l2 2 2 16 2 10v4h-39l-73-1 6-8 15-13 6-3v-3l4-2-8-1-131-1-47-1z" fill="#F9B639"/>
<path transform="translate(956,825)" d="m0 0h18l3 3v2l-5 4-6 9-5 3h-178v-1l44-1v-5l-3-1v-4l-3-6-276-1v-1z" fill="#FABE2D"/>
<path transform="translate(870,1094)" d="m0 0h6l2 2h21l2 2h9l15-2 6 5 4 10 1 5v20l-2 6-14 1-5-2-1-3v-25l-1-2-6-1 1 6v18l-2 7-4 1h-12l-4-4v-28l-7-1 1 9v21l-1 3-9 1h-9l-1-30v-16z" fill="#BC56DF"/>
<path transform="translate(295,107)" d="m0 0 6 1h7l16 4 9 4 4 2 1 2 4 2v2l4 2 5 4v2h2l10 13 5 10v1h-77l1-9-3-3 1 12h-5l1-18 3-14 5-15z" fill="#6F22BA"/>
<path transform="translate(781,875)" d="m0 0h65l98 1h3l5 2-2 12-1 11-1 1-57 1h-149v-1l135-1-1-3-11-8-8-7v-2l-3-1v-2l-73-2z" fill="#F9B432"/>
<path transform="translate(333,1096)" d="m0 0h14l4 2 2 11v19l-1 13-1 1-24 1-1 2v15l-1 2-16-3-3-1-2-56 1-1 16-2zm5 10-1 1v5l1 1h6l1-1v-5l-1-1z" fill="#BD57E0"/>
<path transform="translate(780,1081)" d="m0 0 10 1 9 2 1 1 1 39v17l-16 3-10 2-15 1-5-2-2-5-1-6v-14l1-14 1-5 23-1 3-3zm-15 31-2 3 1 5h8l1-7-2-1z" fill="#B852DD"/>
<path transform="translate(513,951)" d="m0 0h57l20 1v2l-2 1h-13l-15 1 1 4 1 1v12l-3 3-4 1-1 2-14 1 60 3v1h-48l-25-3-1-1-9-2-16-5-9-4-11-7-10-9v-1h20z" fill="#F27020"/>
<path transform="translate(709,1096)" d="m0 0h10l28 3 1 2 1 32-1 9-1 1h-15l-2-1h-10l-16 1-3-12-2-26 2-6 3-2zm15 27-3 3 1 4h7l1-4-2-3z" fill="#BA55DE"/>
<path transform="translate(600,1096)" d="m0 0h13l26 3 1 1 1 14v28l-2 1h-14l-2-1h-11l-14 1-3-5-3-25v-9l2-5 2-2zm15 27-1 1v6l1 1h7l1-2-1-6z" fill="#BC56DF"/>
<path transform="translate(835,1094)" d="m0 0h8l8 3 3 6 1 4v19l-7 2-7 1h-8v5l19-1-1 7-9 3h-26l-8-3-2-2-1-6v-13l1-21 5-1 15-1zm0 20-1 1v5l2 2h5l2-4-1-4z" fill="#BC56DF"/>
<path transform="translate(485,1094)" d="m0 0h9l6 3 3 6 1 7v15l-2 2-12 2h-8v5l19-1-1 7-9 3h-25l-9-3-3-9 1-32 1-1 25-3zm0 20-2 2 1 5 1 1h5l2-4-2-4z" fill="#BD57E0"/>
<path transform="translate(951,1098)" d="m0 0 8 1 1 1v35h8l-1-11v-14l1-10 3-1 18 1 1 10v33l-4 5-15 6-10 1-10-2-1-5 20-1v-3l-8-2h-18l-2-6-1-7v-23l2-5 3-2z" fill="#BB56DF"/>
<path transform="translate(651,1096)" d="m0 0h21l12 2h8l2 1 1 19-2 4-2 1-24 1-1 7h19l9 2 1 5-4 4h-25l-16 1-3-11-1-10v-22l2-3z" fill="#BB55DF"/>
<path transform="translate(391,1095)" d="m0 0h20l5 5 2 3 4-1 4-6 4-1h18l-1 5-9 11-6 7 1 4 7 10 6 9-1 2-20-1-3-5v-2h-5l-2 6-2 1-24 1 2-5 11-14 2-2v-6l-10-13-3-5z" fill="#BC56DF"/>
<path transform="translate(670,560)" d="m0 0h18l4 5 2 6h4l2-5 4-6h18l-1 4-11 16-3 4 1 5 13 18 5 7v2h-18l-8-11-4-4-8 10-3 5h-19l2-5 12-16 5-7-1-6-14-20z" fill="#B954DE"/>
<path transform="translate(953,955)" d="m0 0 7 1 3 7 10 16 4 4-1 3h-416v-1h374v-2h-57v-1l19-1 2-2h12l1-4h8l7-2 2-5 3-2h3v2l8-7 3-3-32-1v-1z" fill="#FBD869"/>
<path transform="translate(682,627)" d="m0 0h29l3 2v12l-1 1h-16v7h15l1 13-1 1h-15v7h16l1 1v12l-1 1h-32l-1-2v-53z" fill="#7428BC"/>
<path transform="translate(591,278)" d="m0 0 2 2 1 7 2 2v61h-3l-13-13-11-15-8-14-4-11 1-7 2-3h4l2 2 7-1 2-1 12-1 2-2z" fill="#6E21BA"/>
<path transform="translate(820,851)" d="m0 0h37l72 1 30 1 1 3-5 8-74 1h-82v-1l41-1-4-4-1-6-15-1z" fill="#FABF32"/>
<path transform="translate(944,910)" d="m0 0 4 2 1 1 2 16 1 4v8h-38v-3h-7l-4-1-6-1-2-1 1-5-2-2 5-3 2-3 4-2v-3h-10l1-3 7-2 40-1z" fill="#FABE2D"/>
<path transform="translate(699,953)" d="m0 0h119l58 1 9 1v1l-15 1-7 1-1 2v-2l-2 1-3 5-9 6-2 6 1 2-4 1-22 1 16 1 20 1 77 1v2h-124v-3l2-1 1-5 7-11 7-8-1-1-37-1-90-1z" fill="#F8AE36"/>
<path transform="translate(511,1088)" d="m0 0h14l7 2 2 2 1 9-1 32 1 5 4 1 1 3-13 1h-16l-2-4v-43l1-7z" fill="#BB55DF"/>
<path transform="translate(496,395)" d="m0 0 1 3h2l14 14 14 11 18 13-4 2h-3l2 1v2h-2l-2 4-6 2-8-2-1-4-6-1 2 4-1 5-4 2-1-2-1-13-2 22h-1v-6h-2l-1-5v-18l-1-20-1 47-2 8-2-3-2-28z" fill="#6D20B9"/>
<path transform="translate(956,825)" d="m0 0h18l3 3v2l-5 4-6 9-5 3-8-1v-1l-50-1-2-2-3-2 2-2-4-3-12-1 3-2 25-1-9-1v-1l12-1v-1z" fill="#FBCD3D"/>
<path transform="translate(526,294)" d="m0 0h6l7 10 9 12 7 10v2h2l3 5 9 11 13 16 1 5-3 1-11-9-16-14-8-6v-2l-4-2-6-5v-2l-5-2-10-9-1-1 1-8 4-8z" fill="#6D20B9"/>
<path transform="translate(681,695)" d="m0 0h15l1 1v41h16l1 1v12l-2 2h-17l-13-1-1-1z" fill="#B952DE"/>
<path transform="translate(257,218)" d="m0 0h30l3 3v24l-2 6-32-1v-31z" fill="#BB54DF"/>
<path transform="translate(209,240)" d="m0 0h33l1 1v30h-34z" fill="#BE59E0"/>
<path transform="translate(256,265)" d="m0 0h33l1 2v28l-1 1h-33z" fill="#BE58E0"/>
<path transform="translate(308,240)" d="m0 0h32l1 8-1 24h-33v-31z" fill="#BE58E0"/>
<path transform="translate(308,194)" d="m0 0 32 1 1 1v30h-34v-31z" fill="#BC56E0"/>
<path transform="translate(352,173)" d="m0 0h31l1 1 1 30-1 1h-32l-1-1v-30z" fill="#BC56E0"/>
<path transform="translate(352,267)" d="m0 0 32 1 1 2v29h-34v-31z" fill="#BA52DF"/>
<path transform="translate(307,289)" d="m0 0h33l1 12v15l-1 4-10 1-23-1z" fill="#BA52DF"/>
<path transform="translate(351,316)" d="m0 0h33l1 30-1 1h-33z" fill="#BA52DF"/>
<path transform="translate(352,221)" d="m0 0 32 1v31h-33v-31z" fill="#BB54DF"/>
<path transform="translate(945,875)" d="m0 0 7 3-2 12-1 11h-43l-11-1 4-4 13-7 11-6 4-4-31-1v-1l10-1h38z" fill="#FBCC3A"/>
<path transform="translate(691,492)" d="m0 0h13l2 2v54h-16v-55z" fill="#782BBD"/>
<path transform="translate(370,1108)" d="m0 0h7l6 4 1 3v13l-1 15h-20l-4-3-1-3v-28z" fill="#BC55DF"/>
<path transform="translate(944,910)" d="m0 0 4 2 1 1 2 16 1 6-2 3-3-3-3 2-6-5-10-4-14-7v-2l-5-1-4-2 1-2-3-2 40-1z" fill="#FBCB35"/>
<path transform="translate(876,877)" d="m0 0h20l31 1 2 2-4 1-3 4-10 5-13 7-4 3h-4l-1-3-4-1v-6l-3-1-1-6 4-2h9v-2h-18z" fill="#FABF2D"/>
<path transform="translate(545,826)" d="m0 0h370v1l-48 1v2l-6 1h-23v3h-14l-3-6-276-1z" fill="#F9B431"/>
<path transform="translate(825,835)" d="m0 0h17l34 1v2l-13 1-5 1-1-1h-14l4 2h9v2h102v1l-5 1-87 1h-83v-1l44-1v-5l-3-1z" fill="#F9B534"/>
<path transform="translate(681,695)" d="m0 0h15l1 1v41h16v5l-3-1-12-1-4-2-1-2 1-38h-9v51l20-1-5-1 3-2h4v3h4l1-5h1v8l-1 1h-17l-13-1-1-1z" fill="#9E4CCF"/>
<path transform="translate(278,218)" d="m0 0h9l3 3v24l-2 6-13-1-1-6-1-24h5z" fill="#7125BA"/>
<path transform="translate(820,851)" d="m0 0h37l24 1v1h-24v2h38v2l-35 1v4h13v2l-33-1-4-4-1-6-15-1z" fill="#F8B332"/>
<path transform="translate(906,852)" d="m0 0h23l30 1 1 3-5 8-1-2h-39l1-2 8-1-1-1-12-2v-1h16v-2h-21z" fill="#FBCE42"/>
<path transform="translate(352,175)" d="m0 0h1l1 15 4 8 3 4 7 1 1-21 1-7h1l1 14 1 5h2l1-6 3-2 1 1 2-7h1v23l2 1-1 1h-32z" fill="#691FB6"/>
<path transform="translate(391,360)" d="m0 0h2l1 120 1 26 2 12v5l-3-1-2-10-1-10z" fill="#9F4DD0"/>
<path transform="translate(352,269)" d="m0 0h2l1 12h5l3 6v2h2v-20h2l1 28 8-1 5-8 2-3 1 5-3 5-1 1 4 2h-32z" fill="#6B20B8"/>
<path transform="translate(496,545)" d="m0 0h1l1 126v19h3l1 8v11h-4l1 19-1 1-1 7h-1z" fill="#270C58"/>
<path transform="translate(307,289)" d="m0 0h33l1 12v15l-1 4-10 1-3-3v-19l1-5h1l2 8 1 2 2-2 1 7 3-1 1-18-24 1-5 4h-2v25h-1z" fill="#BA53DF"/>
<path transform="translate(362,1082)" d="m0 0h16l1 1 1 14-1 2h-16l-2-10v-6z" fill="#C05BE1"/>
<path transform="translate(984,776)" d="m0 0h6l1 1v34h-36l-22-1v-1h54v-2h-11l1-3 9 1-1-19-1-5h4v-2l-4-1z" fill="#5922A8"/>
<path transform="translate(352,317)" d="m0 0h2l1 11 2 3 3-1 1 5h2l1 2 1-20h2l1 29-1 1h-15z" fill="#681FB6"/>
<path transform="translate(210,241)" d="m0 0h16l-1 29h-2l-1-21-3 7-4 1v6h-2l-1-6-1 13h-1z" fill="#691FB7"/>
<path transform="translate(352,267)" d="m0 0 15 1-2 1v20h-2l-4-7-5 1-1-12 1-2h-2v29l27-1 4-7h1l1 9h-34v-31z" fill="#BA52DF"/>
<path transform="translate(308,196)" d="m0 0h16l-1 29h-2l-1-20-4 2v6l-4 1-2 4v7l-2 1z" fill="#6B1FB8"/>
<path transform="translate(257,266)" d="m0 0h16v12l-1 17h-2l-1-24-2 9-4 3-1-4-2 3-1 13-2 1z" fill="#631CB2"/>
<path transform="translate(325,241)" d="m0 0h14v17l-2 5-2-1v-10h-2v4h-2l-3-5-1 20h-2l-1-29z" fill="#6E21B9"/>
<path transform="translate(324,290)" d="m0 0h15v21l-4-2-1-5h-3l-3-5v21l-3-1z" fill="#6D20B9"/>
<path transform="translate(305,96)" d="m0 0h3 2l2 5 10 5 1 5 7 1 7 5-3 1-2-2-14-5-10-2h-12l1-5 4-7 1 2h2z" fill="#421198"/>
<path transform="translate(370,222)" d="m0 0h14v29h-1l-1-15-5 1-4 9-2-2z" fill="#B952DE"/>
<path transform="translate(288,219)" d="m0 0 2 2v24l-2 6-11-1-1-5 1-18 2 1 3 9h5z" fill="#BE5AE0"/>
<path transform="translate(351,316)" d="m0 0h18l-4 1 1 4-1 16-2 1v-3h-2l-1-5h-2l-1 2-3-4v-11h-2v30h-1z" fill="#C15CE1"/>
<path transform="translate(370,223)" d="m0 0h1l1 21 2-2 2-5 3-2v2l2-1 1-6h1v22h-16l1-5 1-17z" fill="#6B20B8"/>
<path transform="translate(371,174)" d="m0 0h13v29h-1l-1-19-2 4h-3l-2 6h-2l-1 4-1-9z" fill="#BA52DF"/>
<path transform="translate(328,248)" d="m0 0h1l2 8h2v-4h2l1 10 2-4h1l1 14h-14l1-21z" fill="#B952DE"/>
<path transform="translate(683,703)" d="m0 0h1l1 46 20-1-5-1 3-2h4v3h4l1-5h1v8l-1 1h-17l-13-1v-47z" fill="#7A2CBF"/>
<path transform="translate(896,860)" d="m0 0h18l1 1 39 1v2l-78 1-1-3h21z" fill="#F8B330"/>
<path transform="translate(269,270)" d="m0 0h1l1 26h-13v-8l2-8 3-2 1 4 3-4 1-7z" fill="#BA52DF"/>
<path transform="translate(682,628)" d="m0 0 28 1v1h-27v50l2-1h21l4 1 1-8h1v11h-30z" fill="#410F9A"/>
<path transform="translate(222,245)" d="m0 0h1v25l2 1h-15l1-15 2 1v6h2v-6h2l1-2 2-3z" fill="#BA52DF"/>
<path transform="translate(319,203)" d="m0 0 2 2 1 21h-13v-8l3-5h4v-6h2z" fill="#BA52DF"/>
<path transform="translate(840,84)" d="m0 0 4 2 7 5-1 5h-7l-1-4h-4l-1 3-6-1-3-3 1-4h9v-2z" fill="#B551DC"/>
<path transform="translate(503,726)" d="m0 0h1v11l-3 16-5 12-2-1 1-7 1-21h2v4h2l1-5 1-1z" fill="#512382"/>
<path transform="translate(342,122)" d="m0 0 4 1 5 1 3 7 4 2 4 1 2 4v3h2l2 4v10l-2-3-7-11-6-7v-2h-2l-5-5-4-3z" fill="#410F9B"/>
<path transform="translate(682,627)" d="m0 0h29l3 2v12l-1 1h-15l3-3h10l-1-10h-27z" fill="#8543C0"/>
<path transform="translate(352,175)" d="m0 0h1l1 15 4 8 3 4 7 1 1-2v3h15v1h-32z" fill="#AB54D6"/>
<path transform="translate(289,144)" d="m0 0 3 1 1 3-2 8h80v1h-84l1-2 2 1-1-2z" fill="#BA52DF"/>
<path transform="translate(307,289)" d="m0 0h33l1 12-1 13h-1v-24l-24 1-5 4h-2v25h-1z" fill="#D47BE9"/>
<path transform="translate(744,463)" d="m0 0 6 1v2l10-1 1 2h-3v2l-13 3-20 1 3-2 3-1 15-2 2-1-5-1z" fill="#571CA7"/>
<path transform="translate(256,219)" d="m0 0h2v5l4-4 4 1-6 10-1 2-1 17h-2z" fill="#722EA6"/>
<path transform="translate(637 1e3)" d="m0 0h64v1l-11 1-1 1h-14l-6-1-32-1z" fill="#6E21BA"/>
<path transform="translate(973,981)" d="m0 0 4 2v2h-43v-2l39-1z" fill="#F9B535"/>
<path transform="translate(478,904)" d="m0 0h22l3 1v2h-28l-9-1v-1z" fill="#F69836"/>
<path transform="translate(351,271)" d="m0 0h1v27l27-1 4-7h1l1 9h-34z" fill="#CD6EE6"/>
<path transform="translate(382,285)" d="m0 0 2 2-1 6-3 3 4 2h-32v-8h1l1 6h22l5-8z" fill="#5517A6"/>
<path transform="translate(788,445)" d="m0 0h11l-4 4-7 3h-3v2h-4v-5l6-3z" fill="#410F9B"/>
<path transform="translate(836,425)" d="m0 0 3 3-5 1-11 6h-4l1-5 7-2v-2z" fill="#410F9B"/>
<path transform="translate(700,1106)" d="m0 0 2 2 2 21 1 11-3-3-2-16z" fill="#913CCA"/>
<path transform="translate(352,223)" d="m0 0h1l1 15 5 10 1 3h5v1h-7l-3-3-2-1-1 4z" fill="#651DB3"/>
<path transform="translate(727,383)" d="m0 0 4 1v8l-2 4-4-1-1-11z" fill="#BA52DF"/>
<path transform="translate(843,413)" d="m0 0h3v10l3 1-4 2-1 2h-2l-1-4v-8z" fill="#410F9B"/>
<path transform="translate(308,242)" d="m0 0 1 4 5-4 3 1-4 5-3 6-1 17h-1z" fill="#5D1BA8"/>
<path transform="translate(251,876)" d="m0 0 2 2v9l-2 13-1 11h-1v-20z" fill="#E999F1"/>
<path transform="translate(272,266)" d="m0 0h1v12l-1 17h-2v-24h1z" fill="#6E21BA"/>
<path transform="translate(352,175)" d="m0 0h1l1 15 4 8 1 3-4-1-2-1v5h-1z" fill="#4E1696"/>
<path transform="translate(289,144)" d="m0 0 3 1 1 3-2 8h22v1h-26l1-2 2 1-1-2z" fill="#D379CA"/>
<path transform="translate(858,404)" d="m0 0 3 1-2 4h-2v2l-11 2 1-4h2v-2h9z" fill="#410F9B"/>
<path transform="translate(315,290)" d="m0 0v3l-5 9-1 18h-1v-25z" fill="#5A1AA2"/>
<path transform="translate(307,289)" d="m0 0 8 1-5 5h-2v25h-1z" fill="#B34EDB"/>
<path transform="translate(688,636)" d="m0 0h3l2 5 2 1 1 8-2-1v-2h-2l-4-5v-2h-2v-2h2z" fill="#410F9B"/>
<path transform="translate(392,503)" d="m0 0 3 3 2 12v5l-3-1-2-10z" fill="#8836C6"/>
<path transform="translate(697,737)" d="m0 0h16v5l-3-1-12-1z" fill="#9648CB"/>
<path transform="translate(875,396)" d="m0 0 3 1-1 4-7 7-3-1 2-4h2v-5h4z" fill="#5D20AA"/>
<path transform="translate(276,229)" d="m0 0h1v21h-2l-1-6v-14z" fill="#6E21BA"/>
<path transform="translate(503,709)" d="m0 0h1v17l-1 8-2 1v-11z" fill="#2A0C5E"/>
<path transform="translate(830,435)" d="m0 0h5l-5 4-7 4h-4l2-4z" fill="#7B35BB"/>
<path transform="translate(276,826)" d="m0 0 1 3-2 3h-2l-2 6h-2v3h-2l-1 3-1-2 5-9z" fill="#EFA2F3"/>
<path transform="translate(698,673)" d="m0 0 7 1v2h-19v-2z" fill="#410F9B"/>
<path transform="translate(696,598)" d="m0 0 4 2 8 11 2 4-4-1-7-11-3-3z" fill="#8E3BC9"/>
<path transform="translate(233,241)" d="m0 0 4 1 5 5v7h-2l-5-10z" fill="#5B1AA7"/>
<path transform="translate(710,654)" d="m0 0h1v7l2 1-1 1h-14v-1l10-1 1-1-3-3 1-2z" fill="#702AB5"/>
<path transform="translate(697,633)" d="m0 0h5l-1 7-3 2h-3v-2h2z" fill="#46119F"/>
<path transform="translate(711,628)" d="m0 0 3 1v12l-1 1h-15v-1h14z" fill="#A951D5"/>
<path transform="translate(281,266)" d="m0 0 4 1v2l3 1 1 7-2 1-4-8z" fill="#5E1BAB"/>
<path transform="translate(333,195)" d="m0 0h7l1 1-1 11h-1l-2-7z" fill="#CB6CE5"/>
<path transform="translate(250,914)" d="m0 0h1l2 11v7l-2 3-2-19z" fill="#F1A5F4"/>
<path transform="translate(262,220)" d="m0 0 4 1-6 10-2 2v-9z" fill="#5E1BAE"/>
<path transform="translate(512,652)" d="m0 0 1 3-3 17-2-4v-7z" fill="#7A3BA9"/>
<path transform="translate(415,558)" d="m0 0 7 6 6 9-4-2-7-7-2-3z" fill="#6020AD"/>
<path transform="translate(671,561)" d="m0 0h2l9 13h-3l-8-10z" fill="#923FCA"/>
<path transform="translate(545,437)" d="m0 0 6 2 8 5-1 3-1-2-3-1-1 2-2-3-3-1z" fill="#7024BA"/>
<path transform="translate(352,223)" d="m0 0h1l1 19 1 4h-2v6h-1z" fill="#421380"/>
<path transform="translate(697,650)" d="m0 0h7v4l-6 3z" fill="#4B13A2"/>
<path transform="translate(382,334)" d="m0 0h1v8l-5 4-3-1 6-9z" fill="#5E1BAA"/>
<path transform="translate(332,196)" d="m0 0 4 2 3 3 1 8-3-3-5-8z" fill="#5F1BAF"/>
<path transform="translate(892,937)" d="m0 0 4 1 1 2 7 1v1h-9l-7-1 1-2h3z" fill="#FBBF2D"/>
<path transform="translate(629,469)" d="m0 0 13 1 5 1v1h-13l-5-1z" fill="#9142CA"/>
<path transform="translate(256,860)" d="m0 0 2 1-2 12-2 1-1-4z" fill="#EB9CF1"/>
<path transform="translate(711,670)" d="m0 0 3 1v12l-2 1-1-5z" fill="#AA5AD4"/>
<path transform="translate(909,347)" d="m0 0 2 2 2-1-2 8-1 2h-2v-10z" fill="#5B20A9"/>
<path transform="translate(678,473)" d="m0 0 1 4h-12v-2l10-1z" fill="#A85BD3"/>
<path transform="translate(864,409)" d="m0 0h2l-1 4-5 4h-2l2-4z" fill="#7231B6"/>
</svg>
