<?xml version="1.0" standalone="no"?>
<!DOCTYPE svg PUBLIC "-//W3C//DTD SVG 20010904//EN"
 "http://www.w3.org/TR/2001/REC-SVG-20010904/DTD/svg10.dtd">
<svg version="1.0" xmlns="http://www.w3.org/2000/svg"
 width="182" height="44" viewBox="0 0 300.000000 300.000000"
 preserveAspectRatio="xMidYMid meet">
<metadata>
Created by potrace 1.10, written by Peter Selinger 2001-2011
</metadata>
<g transform="translate(0.000000,300.000000) scale(0.100000,-0.100000)"
fill="#000000" stroke="none">
<path d="M1685 2903 c-79 -7 -146 -23 -210 -48 l-65 -26 -53 25 c-112 54 -304
61 -425 16 -78 -29 -76 -37 3 -10 32 11 76 20 97 20 68 0 143 -52 181 -125 9
-16 16 -25 17 -20 0 18 -41 79 -76 112 -19 18 -34 34 -34 37 0 5 78 -1 125
-10 50 -10 99 -27 127 -47 24 -15 33 -16 70 -6 24 6 48 14 53 19 14 11 136 40
169 40 45 0 54 -17 48 -100 -4 -77 -11 -90 -49 -90 -26 0 -141 -47 -166 -68
-9 -8 -22 -32 -27 -53 -6 -21 -15 -41 -20 -44 -6 -3 -10 -14 -9 -23 0 -11 3
-12 6 -4 19 47 23 -20 14 -271 -1 -25 -3 -27 -21 -17 -23 12 -37 43 -50 105
-6 31 -8 34 -9 13 -1 -40 32 -121 68 -167 17 -21 31 -46 31 -55 0 -31 -37 1
-97 84 -32 44 -61 80 -64 80 -9 0 -21 -49 -15 -59 14 -23 146 -121 166 -124
13 -2 26 -9 28 -15 2 -7 11 -12 21 -12 9 0 21 -4 27 -9 5 -5 27 -14 49 -20 83
-25 86 -28 83 -95 -1 -36 -8 -68 -16 -78 -15 -18 -62 -25 -62 -10 0 5 -30 8
-67 8 -37 -1 -77 4 -90 11 -21 11 -26 8 -51 -23 -15 -19 -31 -34 -35 -34 -13
0 37 79 53 84 8 2 4 4 -10 5 -43 2 -150 89 -150 121 0 16 -29 50 -43 50 -11 0
-27 -39 -32 -77 -2 -21 -7 -114 -10 -207 -4 -110 -10 -175 -18 -185 -9 -12 -9
-13 1 -7 7 4 12 1 12 -9 0 -37 -33 -28 -79 22 -74 81 -74 81 -79 261 -2 89 -2
162 1 162 10 0 62 -24 67 -31 3 -3 16 -10 30 -14 22 -7 20 -4 -10 20 -19 16
-52 44 -72 64 l-38 35 0 -194 c1 -210 7 -242 55 -306 24 -31 132 -124 145
-124 3 0 6 62 7 138 2 75 5 207 9 292 l6 154 20 -24 c18 -22 19 -41 16 -486
-2 -255 1 -460 5 -455 4 4 14 69 22 144 8 75 21 151 29 170 8 19 44 68 82 108
85 93 106 140 112 247 4 72 7 82 21 77 32 -12 137 -35 164 -35 l27 0 0 78 c0
42 3 93 6 113 l6 36 -52 6 c-28 3 -77 19 -108 34 l-57 29 -3 246 -2 247 63 31
c37 18 87 34 119 37 l55 6 7 75 c8 100 8 162 -1 160 -5 -1 -26 -3 -48 -5z
m-343 -1031 c1 -15 2 -36 2 -47 2 -28 30 -30 64 -6 53 37 66 -11 34 -126 -14
-53 -28 -75 -86 -139 -37 -41 -71 -72 -74 -69 -8 8 -13 401 -6 433 l5 23 29
-21 c19 -14 31 -31 32 -48z"/>
<path d="M1807 2783 c1 -85 6 -120 15 -125 7 -4 35 -17 63 -29 150 -69 222
-250 157 -394 -30 -64 -107 -137 -177 -166 l-55 -23 -2 -98 c-1 -54 -2 -106
-2 -115 -1 -23 31 -20 135 13 194 61 350 227 388 412 56 273 -134 545 -435
622 -43 11 -80 20 -83 20 -3 0 -5 -53 -4 -117z m136 55 c54 -17 67 -26 64 -39
-3 -11 0 -16 8 -12 8 2 24 -1 37 -8 13 -7 26 -13 29 -14 14 -1 128 -119 145
-150 10 -19 22 -35 26 -35 5 0 8 -7 8 -15 0 -9 7 -27 16 -40 9 -14 14 -25 11
-25 -3 0 0 -15 7 -32 23 -56 2 -278 -26 -278 -4 0 -8 -7 -8 -15 0 -76 -179
-248 -296 -285 -21 -7 -50 -17 -63 -22 -44 -16 -61 -2 -60 50 2 70 12 104 34
116 94 52 168 118 181 160 4 12 10 23 14 26 4 3 14 39 21 81 12 72 11 81 -11
148 -17 55 -35 86 -72 126 -26 29 -48 58 -48 65 0 9 -3 10 -14 1 -14 -12 -32
-5 -88 33 -27 17 -28 22 -28 95 0 43 3 81 7 84 11 12 35 8 106 -15z"/>
<path d="M777 2780 c-26 -20 -51 -77 -61 -137 l-5 -33 129 0 c101 0 130 3 130
13 0 36 -33 119 -59 146 -36 38 -93 43 -134 11z m106 -40 c26 -30 43 -82 33
-99 -9 -14 -139 0 -152 17 -14 19 -5 72 12 72 8 0 23 9 34 20 27 27 44 25 73
-10z"/>
<path d="M1217 2673 c-8 -10 -27 -38 -40 -62 l-26 -44 34 -68 c19 -37 39 -70
45 -74 15 -10 13 -168 -2 -163 -9 3 -15 35 -19 89 -3 46 -6 68 -8 49 -9 -125
-3 -150 35 -150 15 0 21 6 21 23 1 12 2 36 3 52 2 30 2 30 10 5 l8 -25 1 25
c0 14 -6 34 -14 44 -8 11 -15 27 -15 37 0 9 -7 22 -16 30 -21 17 -64 103 -64
127 0 11 13 37 28 58 35 48 44 64 39 64 -2 0 -11 -8 -20 -17z"/>
<path d="M982 2409 l-2 -186 35 -69 c37 -75 100 -160 108 -147 3 5 -15 37 -39
73 -85 123 -88 133 -94 335 l-6 180 -2 -186z"/>
<path d="M880 2528 c0 -38 0 -38 40 -38 39 0 40 1 40 34 0 32 -2 34 -40 38
l-40 4 0 -38z m40 -3 c0 -18 -4 -23 -15 -19 -16 6 -20 26 -8 37 13 14 23 6 23
-18z"/>
<path d="M770 2472 l0 -38 40 4 c38 4 40 6 40 38 0 33 -1 34 -40 34 -40 0 -40
0 -40 -38z"/>
<path d="M640 2416 c0 -32 2 -34 40 -38 l40 -4 0 38 c0 38 0 38 -40 38 -39 0
-40 -1 -40 -34z"/>
<path d="M880 2405 c0 -34 1 -35 40 -35 39 0 40 1 40 35 0 34 -1 35 -40 35
-39 0 -40 -1 -40 -35z m40 0 c0 -18 -4 -23 -15 -19 -16 6 -20 26 -8 37 13 14
23 6 23 -18z"/>
<path d="M520 2359 l0 -40 42 3 c44 3 45 6 39 68 -1 6 -19 10 -41 10 l-40 0 0
-41z"/>
<path d="M770 2360 c0 -40 0 -40 40 -40 40 0 40 0 40 40 0 40 0 40 -40 40 -40
0 -40 0 -40 -40z"/>
<path d="M1135 2335 c22 -19 44 -34 49 -35 5 0 -8 16 -30 35 -21 19 -43 34
-49 34 -5 1 8 -15 30 -34z"/>
<path d="M640 2300 c0 -40 0 -40 40 -40 40 0 40 0 40 40 0 40 0 40 -40 40 -40
0 -40 0 -40 -40z"/>
<path d="M880 2290 c0 -40 0 -40 40 -40 40 0 40 0 40 40 0 40 0 40 -40 40 -40
0 -40 0 -40 -40z m64 21 c8 -12 -3 -41 -15 -41 -5 0 -9 11 -9 25 0 25 14 34
24 16z"/>
<path d="M770 2238 c0 -38 0 -38 40 -38 40 0 40 0 40 39 l0 40 -40 -2 c-39 -1
-40 -2 -40 -39z"/>
<path d="M880 2170 c0 -40 0 -40 40 -40 40 0 40 0 40 40 0 40 0 40 -40 40 -40
0 -40 0 -40 -40z"/>
<path d="M1728 1700 c-3 -61 -1 -70 15 -70 14 0 17 10 17 70 0 54 -3 70 -14
70 -11 0 -15 -18 -18 -70z"/>
<path d="M1680 1591 c0 -6 4 -13 10 -16 28 -17 30 -44 5 -73 -30 -36 -31 -42
-6 -42 11 0 27 10 35 22 l16 22 16 -22 c8 -12 24 -22 35 -22 25 0 24 6 -6 42
-25 29 -23 56 5 73 17 10 11 25 -10 25 -10 0 -24 -8 -30 -17 -10 -17 -10 -17
-20 0 -11 18 -50 24 -50 8z"/>
<path d="M1700 1360 l0 -70 40 0 c29 0 40 4 40 15 0 8 -9 15 -20 15 -11 0 -20
7 -20 16 0 11 6 14 20 9 16 -5 20 -2 20 15 0 17 -4 20 -20 15 -14 -5 -20 -2
-20 9 0 9 9 16 20 16 11 0 20 7 20 15 0 11 -11 15 -40 15 l-40 0 0 -70z"/>
<path d="M1702 1193 l3 -68 38 -3 c32 -3 37 0 37 18 0 17 -4 20 -20 15 -18 -6
-20 -2 -20 49 0 50 -2 56 -20 56 -19 0 -21 -5 -18 -67z"/>
<path d="M860 1046 c-60 -16 -109 -47 -155 -97 -58 -64 -78 -120 -79 -214 0
-72 3 -86 34 -143 39 -74 83 -115 160 -151 l55 -26 803 -3 802 -3 0 46 0 45
-787 0 c-490 0 -802 4 -824 10 -48 13 -118 75 -140 124 -12 26 -19 65 -19 104
0 99 46 172 135 213 38 18 84 19 835 19 l796 0 -1 45 0 45 -785 -1 c-587 0
-796 -3 -830 -13z m460 -3 c0 -5 -8 -18 -18 -30 -16 -20 -26 -22 -222 -25
-225 -4 -248 -9 -309 -68 -45 -43 -73 -111 -75 -179 -1 -31 -5 -63 -10 -71 -5
-8 -5 -12 -1 -7 5 4 22 -19 38 -50 25 -49 58 -87 77 -88 3 -1 16 -7 30 -15 41
-23 42 -23 412 -27 295 -3 359 -7 368 -19 14 -16 37 -19 42 -5 5 13 48 24 48
12 0 -6 5 -11 11 -11 5 0 7 5 4 10 -3 6 3 10 14 10 17 0 19 -4 12 -22 l-8 -23
-429 0 -429 0 -57 29 c-59 29 -128 90 -128 113 0 7 -4 13 -9 13 -9 0 -25 51
-21 66 1 4 -3 10 -10 14 -18 11 -14 120 6 172 24 59 71 118 95 118 11 0 16 5
13 13 -3 8 14 22 43 37 46 24 59 25 273 30 124 3 228 7 233 8 4 1 7 -1 7 -5z
m840 -26 c-25 -22 -28 -22 -438 -25 -226 -2 -412 -1 -412 2 0 3 8 15 17 26 17
19 29 20 438 20 l420 -1 -25 -22z m-203 -561 c4 -3 12 -1 20 5 7 6 13 8 13 3
0 -5 56 -8 125 -8 69 1 128 -2 130 -7 3 -4 -106 -8 -242 -9 -204 0 -244 2
-230 13 18 13 172 15 184 3z m389 -9 c4 -4 -14 -7 -39 -7 -26 0 -47 4 -47 9 0
10 76 8 86 -2z"/>
<path d="M853 909 c-141 -69 -134 -284 12 -350 38 -17 84 -19 807 -19 l767 0
-22 35 -22 34 -215 1 c-118 0 -422 3 -674 7 -312 4 -457 3 -453 -4 4 -6 33
-13 66 -16 32 -3 67 -10 78 -16 13 -8 -19 -10 -129 -11 -165 0 -209 12 -257
72 -34 43 -35 128 -2 182 42 67 81 77 289 77 97 -1 186 0 197 1 59 5 465 -3
462 -9 -3 -5 142 -7 321 -5 308 3 328 4 347 23 19 19 12 19 -755 19 -762 0
-776 0 -817 -21z m474 -313 c56 -3 235 -6 398 -6 169 -1 295 -5 295 -10 0 -14
-738 -18 -776 -4 -30 11 -60 39 -32 30 7 -3 59 -7 115 -10z m1039 -17 c2 -4
-70 -9 -161 -11 -156 -3 -175 -1 -158 15 9 10 313 6 319 -4z"/>
<path d="M1150 849 l-45 -19 260 5 c143 2 432 4 643 5 345 0 382 2 382 16 0
15 -44 16 -517 10 -490 -6 -582 -9 -662 -21 -29 -5 -32 -3 -21 10 15 18 15 18
-40 -6z"/>
<path d="M1170 808 c0 -5 6 -8 13 -9 6 0 64 -2 127 -5 101 -3 235 -10 295 -14
15 -1 12 -4 -9 -10 -16 -5 -91 -10 -165 -11 -75 -1 -147 -5 -161 -9 -14 -4
228 -7 537 -6 l561 1 5 30 c3 17 4 31 3 32 -4 6 -1206 6 -1206 1z"/>
<path d="M1289 714 c31 -9 48 -11 57 -3 8 6 14 7 18 0 4 -6 82 -10 189 -11
495 -3 781 -10 790 -19 7 -7 -134 -10 -399 -11 -361 0 -494 -3 -704 -15 -79
-4 -83 -7 -19 -14 30 -3 304 -5 608 -3 l552 2 -7 38 c-4 20 -7 38 -8 38 0 1
-253 4 -561 7 -487 4 -554 3 -516 -9z"/>
<path d="M1130 660 c-8 -5 -25 -10 -37 -10 -12 0 -24 -4 -27 -9 -5 -8 84 -3
93 5 11 10 -15 22 -29 14z"/>
<path d="M905 290 c-9 -15 5 -36 25 -37 27 -2 27 33 0 40 -11 3 -22 1 -25 -3z"/>
<path d="M1950 274 c0 -20 -5 -24 -29 -24 -32 0 -41 -14 -41 -64 0 -45 13 -55
63 -45 23 4 45 8 50 9 4 0 7 31 7 69 0 65 -1 69 -25 73 -21 4 -25 1 -25 -18z
m30 -71 c0 -24 -4 -28 -30 -30 -31 -2 -41 11 -15 21 8 3 15 12 15 21 0 8 7 15
15 15 10 0 15 -10 15 -27z"/>
<path d="M1274 213 l1 -68 39 -2 c28 -1 35 2 27 10 -6 6 -11 37 -11 69 0 57 0
58 -29 58 l-29 0 2 -67z"/>
<path d="M798 250 c-15 -4 -29 -5 -33 -2 -3 3 -4 -28 -1 -68 4 -66 7 -75 25
-78 17 -3 21 2 21 22 0 23 4 26 36 26 l35 0 -3 53 c-3 47 -5 52 -28 54 -14 1
-37 -2 -52 -7z m32 -35 c0 -8 7 -15 15 -15 8 0 15 -8 14 -17 0 -11 -3 -13 -6
-6 -3 10 -9 9 -20 -3 -12 -12 -18 -13 -23 -3 -6 8 -9 6 -13 -7 -3 -13 -5 -11
-6 9 -1 26 15 56 32 57 4 0 7 -7 7 -15z"/>
<path d="M990 241 c5 -11 15 -23 21 -26 6 -4 0 -20 -17 -42 l-27 -35 34 7 c19
4 37 12 40 17 3 5 12 2 19 -7 12 -15 55 -22 48 -7 -2 4 -10 19 -17 35 -13 25
-12 29 9 52 l23 25 -30 0 c-17 0 -33 -6 -36 -12 -4 -10 -7 -10 -18 0 -7 6 -24
12 -36 12 -20 0 -22 -3 -13 -19z"/>
<path d="M1163 253 c-20 -4 -23 -11 -23 -53 0 -48 1 -49 34 -55 36 -7 76 1 76
14 0 5 -11 6 -25 3 -14 -2 -25 0 -25 6 0 6 12 12 28 14 21 2 27 9 28 28 1 14
-1 31 -3 37 -5 13 -44 15 -90 6z m27 -53 c0 -16 -4 -30 -10 -30 -5 0 -10 14
-10 30 0 17 5 30 10 30 6 0 10 -13 10 -30z"/>
<path d="M1486 251 c-4 -5 -4 -32 0 -58 l6 -48 54 -1 54 -2 0 54 c0 45 -3 54
-17 54 -10 0 -34 3 -54 6 -22 4 -39 2 -43 -5z m78 -30 c3 -5 -7 -11 -22 -14
-31 -6 -37 -3 -27 12 8 13 42 14 49 2z"/>
<path d="M1620 207 c0 -30 2 -56 4 -58 2 -2 29 -2 60 -1 60 4 68 22 10 22 -24
0 -34 4 -31 13 2 7 17 11 35 9 29 -3 32 -1 32 26 0 25 -5 30 -31 36 -74 14
-79 11 -79 -47z"/>
<path d="M1758 254 c-9 -9 -10 -60 -2 -89 4 -17 14 -20 60 -21 l54 -2 0 54 c0
45 -3 54 -17 54 -10 0 -34 3 -53 6 -19 3 -38 2 -42 -2z m91 -59 c-1 -24 -3
-25 -6 -7 -3 15 -11 22 -29 22 -13 0 -24 4 -24 9 0 4 13 8 30 7 27 -1 30 -4
29 -31z"/>
<path d="M2043 253 c-17 -3 -23 -12 -25 -31 -2 -45 2 -66 15 -74 14 -9 59 -10
81 -2 25 10 19 22 -9 16 -15 -2 -25 0 -25 7 0 6 12 11 26 11 23 0 25 3 22 38
-3 33 -6 37 -33 38 -16 1 -40 0 -52 -3z m7 -43 c0 -11 0 -23 1 -27 0 -4 -4 -9
-10 -11 -6 -2 -11 10 -11 27 0 17 5 31 10 31 6 0 10 -9 10 -20z"/>
<path d="M2150 199 c0 -60 8 -70 39 -50 10 6 12 20 8 45 -4 27 -2 36 9 36 10
0 14 -12 14 -40 0 -37 2 -40 26 -40 25 0 26 2 21 41 -4 28 -2 39 6 36 7 -2 13
-22 15 -45 3 -42 8 -47 36 -36 18 7 21 38 6 80 -10 29 -11 29 -95 31 l-85 1 0
-59z"/>
<path d="M2354 235 c-4 -8 -3 -31 0 -50 6 -30 11 -35 36 -35 16 0 32 -4 35
-10 4 -6 -7 -10 -26 -10 -25 0 -30 -3 -21 -12 9 -9 21 -8 52 1 l40 12 0 59 c0
57 -1 60 -25 60 -23 0 -25 -4 -25 -46 0 -32 -4 -44 -12 -41 -8 2 -13 21 -12
46 1 34 -3 41 -18 41 -10 0 -21 -7 -24 -15z"/>
<path d="M902 188 c3 -38 6 -43 29 -46 24 -3 26 -1 25 40 -1 39 -3 43 -29 46
-27 3 -28 2 -25 -40z"/>
</g>
</svg>
